<?xml version="1.0" encoding="UTF-8" standalone="no" ?>
<!DOCTYPE svg PUBLIC "-//W3C//DTD SVG 1.1//EN" "http://www.w3.org/Graphics/SVG/1.1/DTD/svg11.dtd">
<svg xmlns="http://www.w3.org/2000/svg" xmlns:xlink="http://www.w3.org/1999/xlink" version="1.1" width="120" height="60" viewBox="0 0 120 60" xml:space="preserve">
<desc>Created with Fabric.js 5.2.4</desc>
<defs>
</defs>
<rect x="0" y="0" width="100%" height="100%" fill="transparent"></rect>
<g transform="matrix(1 0 0 1 60 30)" id="a0a18942-b9fd-438c-b320-63f25f27cc76"  >
<rect style="stroke: none; stroke-width: 1; stroke-dasharray: none; stroke-linecap: butt; stroke-dashoffset: 0; stroke-linejoin: miter; stroke-miterlimit: 4; fill: rgb(255,255,255); fill-rule: nonzero; opacity: 1; visibility: hidden;" vector-effect="non-scaling-stroke"  x="-60" y="-30" rx="0" ry="0" width="120" height="60" />
</g>
<g transform="matrix(Infinity NaN NaN Infinity 0 0)" id="5195fc22-adbb-4b9e-844f-392c6517dee7"  >
</g>
<g transform="matrix(1.21 0 0 1.21 60 30)"  >
<g style="" vector-effect="non-scaling-stroke"   >
		<g transform="matrix(1 0 0 1 0 0)"  >
<rect style="stroke: none; stroke-width: 1; stroke-dasharray: none; stroke-linecap: butt; stroke-dashoffset: 0; stroke-linejoin: miter; stroke-miterlimit: 4; fill: rgb(255,255,255); fill-rule: nonzero; opacity: 1; visibility: hidden;" vector-effect="non-scaling-stroke"  x="-50" y="-30" rx="0" ry="0" width="100" height="60" />
</g>
		<g transform="matrix(0.84 0 0 0.84 2.11 -0.38)"  >
<path style="stroke: none; stroke-width: 0.31431133; stroke-dasharray: none; stroke-linecap: butt; stroke-dashoffset: 0; stroke-linejoin: miter; stroke-miterlimit: 4; fill: rgb(0,0,0); fill-rule: nonzero; opacity: 1;" vector-effect="non-scaling-stroke"  transform=" translate(-265.81, -758.04)" d="M 257.17003 747.19755 L 274.45715 747.19755 L 274.45715 754.4267199999999 L 264.39919000000003 754.4267199999999 L 264.39919000000003 761.6558799999999 L 274.45715 761.6558799999999 L 274.45715 768.8850399999999 L 257.17003 768.8850399999999 z" stroke-linecap="round" />
</g>
		<g transform="matrix(0.84 0 0 0.84 19.53 -0.24)"  >
<path style="stroke: none; stroke-width: 0.31431133; stroke-dasharray: none; stroke-linecap: butt; stroke-dashoffset: 0; stroke-linejoin: miter; stroke-miterlimit: 4; fill: rgb(0,0,0); fill-rule: nonzero; opacity: 1;" vector-effect="non-scaling-stroke"  transform=" translate(-286.56, -758.2)" d="M 277.91457 747.19755 L 295.2017 747.19755 L 295.2017 753.48379 L 285.14374000000004 753.48379 L 285.14374000000004 754.74102 L 295.2017 754.74102 L 295.2017 769.1993500000001 L 277.91457 769.1993500000001 L 277.91457 762.5988100000001 L 287.97253 762.5988100000001 L 287.97253 761.34157 L 277.91457 761.34157 z" stroke-linecap="round" />
</g>
		<g transform="matrix(0.84 0 0 0.84 36.95 -0.24)"  >
<path style="stroke: none; stroke-width: 0.31431133; stroke-dasharray: none; stroke-linecap: butt; stroke-dashoffset: 0; stroke-linejoin: miter; stroke-miterlimit: 4; fill: rgb(0,0,0); fill-rule: nonzero; opacity: 1;" vector-effect="non-scaling-stroke"  transform=" translate(-307.3, -758.2)" d="M 298.65913 747.19755 L 315.94624 747.19755 L 315.94624 753.48379 L 305.88828 753.48379 L 305.88828 754.74102 L 315.94624 754.74102 L 315.94624 769.1993500000001 L 298.65913 769.1993500000001 L 298.65913 762.5988100000001 L 308.7171 762.5988100000001 L 308.7171 761.34157 L 298.65913 761.34157 z" stroke-linecap="round" />
</g>
		<g transform="matrix(0.09 0 0 0.09 -27.75 0)"  >
<polygon style="stroke: none; stroke-width: 1; stroke-dasharray: none; stroke-linecap: butt; stroke-dashoffset: 0; stroke-linejoin: miter; stroke-miterlimit: 4; fill: rgb(38,77,228); fill-rule: nonzero; opacity: 1;" vector-effect="non-scaling-stroke"  points="148.32,164.51 -0.22,205.69 -148.36,164.57 -181.37,-205.69 181.37,-205.69 " />
</g>
		<g transform="matrix(0.09 0 0 0.09 -21.14 -0.05)"  >
<polygon style="stroke: none; stroke-width: 1; stroke-dasharray: none; stroke-linecap: butt; stroke-dashoffset: 0; stroke-linejoin: miter; stroke-miterlimit: 4; fill: rgb(41,101,241); fill-rule: nonzero; opacity: 1;" vector-effect="non-scaling-stroke"  points="-74.13,174.81 45.89,141.54 74.13,-174.81 -74.13,-174.81 " />
</g>
		<g transform="matrix(0.09 0 0 0.09 -32.47 -1.37)"  >
<polygon style="stroke: none; stroke-width: 1; stroke-dasharray: none; stroke-linecap: butt; stroke-dashoffset: 0; stroke-linejoin: miter; stroke-miterlimit: 4; fill: rgb(235,235,235); fill-rule: nonzero; opacity: 1;" vector-effect="non-scaling-stroke"  points="52.84,-22.7 -52.84,-22.7 -48.78,22.71 52.84,22.71 " />
</g>
		<g transform="matrix(0.09 0 0 0.09 -32.83 -9.57)"  >
<polygon style="stroke: none; stroke-width: 1; stroke-dasharray: none; stroke-linecap: butt; stroke-dashoffset: 0; stroke-linejoin: miter; stroke-miterlimit: 4; fill: rgb(235,235,235); fill-rule: nonzero; opacity: 1;" vector-effect="non-scaling-stroke"  points="56.78,-22.71 -56.93,-22.71 -52.81,22.71 56.93,22.71 56.93,-22.71 " />
</g>
		<g transform="matrix(0.09 0 0 0.09 -32.2 7.01)"  >
<polygon style="stroke: none; stroke-width: 1; stroke-dasharray: none; stroke-linecap: butt; stroke-dashoffset: 0; stroke-linejoin: miter; stroke-miterlimit: 4; fill: rgb(235,235,235); fill-rule: nonzero; opacity: 1;" vector-effect="non-scaling-stroke"  points="49.6,1.31 -0.98,-12.34 -4.21,-48.56 -28.79,-48.56 -49.8,-48.56 -43.43,22.74 49.59,48.56 49.8,48.5 49.8,1.26 " />
</g>
		<g transform="matrix(0.09 0 0 0.09 -22.7 -0.13)"  >
<polygon style="stroke: none; stroke-width: 1; stroke-dasharray: none; stroke-linecap: butt; stroke-dashoffset: 0; stroke-linejoin: miter; stroke-miterlimit: 4; fill: rgb(255,255,255); fill-rule: nonzero; opacity: 1;" vector-effect="non-scaling-stroke"  points="7.11,-83.15 2.98,-36.65 -56.88,-36.65 -56.88,8.76 -0.96,8.76 -6.23,67.65 -56.88,81.32 -56.88,128.56 36.22,102.76 36.9,95.09 47.57,-24.46 48.68,-36.65 56.88,-128.56 -56.88,-128.56 -56.88,-83.15 " />
</g>
</g>
</g>
</svg>