<?xml version="1.0" encoding="UTF-8" standalone="no" ?>
<!DOCTYPE svg PUBLIC "-//W3C//DTD SVG 1.1//EN" "http://www.w3.org/Graphics/SVG/1.1/DTD/svg11.dtd">
<svg xmlns="http://www.w3.org/2000/svg" xmlns:xlink="http://www.w3.org/1999/xlink" version="1.1" width="160" height="60" viewBox="0 0 160 60" xml:space="preserve">
<desc>Created with Fabric.js 5.2.4</desc>
<defs>
</defs>
<rect x="0" y="0" width="100%" height="100%" fill="transparent"></rect>
<g transform="matrix(1 0 0 1 80 30)" id="3c0f6339-e2ad-4c38-af01-efdca0988766"  >
<rect style="stroke: none; stroke-width: 1; stroke-dasharray: none; stroke-linecap: butt; stroke-dashoffset: 0; stroke-linejoin: miter; stroke-miterlimit: 4; fill: rgb(255,255,255); fill-rule: nonzero; opacity: 1; visibility: hidden;" vector-effect="non-scaling-stroke"  x="-80" y="-30" rx="0" ry="0" width="160" height="60" />
</g>
<g transform="matrix(Infinity NaN NaN Infinity 0 0)" id="9998006b-5f1a-473e-8a7c-10d97cca0da2"  >
</g>
<g transform="matrix(1.27 0 0 1.27 80 30)"  >
<g style="" vector-effect="non-scaling-stroke"   >
		<g transform="matrix(1 0 0 1 -17.17 0.01)"  >
<path style="stroke: none; stroke-width: 1; stroke-dasharray: none; stroke-linecap: butt; stroke-dashoffset: 0; stroke-linejoin: miter; stroke-miterlimit: 4; fill: rgb(0,0,0); fill-rule: nonzero; opacity: 1;" vector-effect="non-scaling-stroke"  transform=" translate(-42.83, -30.01)" d="M 6.3 21.475 L 12 21.475 L 12 27.105 L 17.213 27.105 L 17.213 21.475 L 22.913 21.475 L 22.913 38.525000000000006 L 17.213 38.525000000000006 L 17.213 32.825 L 12 32.825 L 12 38.525000000000006 L 6.3 38.525000000000006 L 6.3 21.475000000000005 z M 30.407 27.130000000000003 L 25.38 27.130000000000003 L 25.38 21.476000000000003 L 41.116 21.476000000000003 L 41.116 27.130000000000003 L 36.096000000000004 27.130000000000003 L 36.096000000000004 38.527 L 30.396000000000004 38.527 L 30.396000000000004 27.13 z M 43.614000000000004 21.475 L 49.557 21.475 L 53.213 27.475 L 56.865 21.475 L 62.8 21.475 L 62.8 38.525000000000006 L 57.123999999999995 38.525000000000006 L 57.123999999999995 30.073000000000008 L 53.20399999999999 36.13600000000001 L 53.105999999999995 36.13600000000001 L 49.2 30.074 L 49.2 38.526 L 43.624 38.526 z M 65.644 21.475 L 71.34400000000001 21.475 L 71.34400000000001 32.9 L 79.35900000000001 32.9 L 79.35900000000001 38.536 L 65.645 38.536 z" stroke-linecap="round" />
</g>
		<g transform="matrix(1 0 0 1 37.88 0)"  >
<path style="stroke: none; stroke-width: 1; stroke-dasharray: none; stroke-linecap: butt; stroke-dashoffset: 0; stroke-linejoin: miter; stroke-miterlimit: 4; fill: rgb(228,77,38); fill-rule: nonzero; opacity: 1;" vector-effect="non-scaling-stroke"  transform=" translate(-97.89, -30)" d="M 82.07 12.06 L 113.707 12.06 L 110.82499999999999 44.348 L 97.87 47.94 L 84.95 44.352999999999994 z" stroke-linecap="round" />
</g>
		<g transform="matrix(1 0 0 1 44.36 -0.05)"  >
<path style="stroke: none; stroke-width: 1; stroke-dasharray: none; stroke-linecap: butt; stroke-dashoffset: 0; stroke-linejoin: miter; stroke-miterlimit: 4; fill: rgb(241,101,41); fill-rule: nonzero; opacity: 1;" vector-effect="non-scaling-stroke"  transform=" translate(-104.36, -29.95)" d="M 108.36 42.293 L 110.823 14.701 L 97.9 14.701 L 97.9 45.195 z" stroke-linecap="round" />
</g>
		<g transform="matrix(1 0 0 1 32.93 -0.12)"  >
<path style="stroke: none; stroke-width: 1; stroke-dasharray: none; stroke-linecap: butt; stroke-dashoffset: 0; stroke-linejoin: miter; stroke-miterlimit: 4; fill: rgb(235,235,235); fill-rule: nonzero; opacity: 1;" vector-effect="non-scaling-stroke"  transform=" translate(-92.94, -29.88)" d="M 92.65 26.678 L 92.28800000000001 22.622 L 97.9 22.622 L 97.9 18.662 L 87.97 18.662 L 89.038 30.639 L 97.9 30.639 L 97.9 26.679 z M 89.20400000000001 32.620000000000005 L 89.75900000000001 38.84 L 97.87200000000001 41.092000000000006 L 97.89000000000001 41.087 L 97.89000000000001 36.967000000000006 L 97.87300000000002 36.97200000000001 L 93.47300000000001 35.772000000000006 L 93.19100000000002 32.61200000000001 L 91.04800000000002 32.61200000000001 z" stroke-linecap="round" />
</g>
		<g transform="matrix(1 0 0 1 42.84 -0.13)"  >
<path style="stroke: none; stroke-width: 1; stroke-dasharray: none; stroke-linecap: butt; stroke-dashoffset: 0; stroke-linejoin: miter; stroke-miterlimit: 4; fill: rgb(255,255,255); fill-rule: nonzero; opacity: 1;" vector-effect="non-scaling-stroke"  transform=" translate(-102.84, -29.87)" d="M 106.986 27.74 L 107.083 26.676 L 97.877 26.676 L 97.877 30.636 L 102.75399999999999 30.636 L 102.294 35.772999999999996 L 97.877 36.964999999999996 L 97.877 41.084999999999994 L 105.997 38.834999999999994 L 106.057 38.16499999999999 z M 97.88600000000001 22.622 L 107.453 22.622 L 107.808 18.652 L 97.88600000000001 18.652 L 97.88600000000001 22.602 z" stroke-linecap="round" />
</g>
</g>
</g>
</svg>