<?xml version="1.0" encoding="UTF-8" standalone="no" ?>
<!DOCTYPE svg PUBLIC "-//W3C//DTD SVG 1.1//EN" "http://www.w3.org/Graphics/SVG/1.1/DTD/svg11.dtd">
<svg xmlns="http://www.w3.org/2000/svg" xmlns:xlink="http://www.w3.org/1999/xlink" version="1.1" width="160" height="60" viewBox="0 0 160 60" xml:space="preserve">
<desc>Created with Fabric.js 5.2.4</desc>
<defs>
</defs>
<rect x="0" y="0" width="100%" height="100%" fill="transparent"></rect>
<g transform="matrix(1 0 0 1 80 30)" id="6a25c4e8-2ec9-43e8-ac6c-bebb9d96f93d"  >
<rect style="stroke: none; stroke-width: 1; stroke-dasharray: none; stroke-linecap: butt; stroke-dashoffset: 0; stroke-linejoin: miter; stroke-miterlimit: 4; fill: rgb(255,255,255); fill-rule: nonzero; opacity: 1; visibility: hidden;" vector-effect="non-scaling-stroke"  x="-80" y="-30" rx="0" ry="0" width="160" height="60" />
</g>
<g transform="matrix(Infinity NaN NaN Infinity 0 0)" id="c6e6d6ba-3ff2-4872-9bdf-897695cbda9c"  >
</g>
<g transform="matrix(0.18 0 0 0.18 80 30)"  >
<g style="" vector-effect="non-scaling-stroke"   >
		<g transform="matrix(1 0 0 1 -298.85 -78.33)"  >
<path style="stroke: none; stroke-width: 1; stroke-dasharray: none; stroke-linecap: butt; stroke-dashoffset: 0; stroke-linejoin: miter; stroke-miterlimit: 4; fill: rgb(52,168,83); fill-rule: nonzero; opacity: 1;" vector-effect="non-scaling-stroke"  transform=" translate(-58.5, -16.59)" d="M 58.49 0 C 52.35807349936552 0.00267479195527221 46.72703684624703 3.3855055081772534 43.84500958844234 8.797940140481487 C 40.96298233063766 14.21037477278572 41.29941840469066 20.770780873893678 44.720000000000006 25.860000000000007 L 51.81 18.78 C 51.57566779645382 18.073731257315703 51.45746574147961 17.334124113334205 51.46 16.59 C 51.46 12.724006751184445 54.594006751184445 9.59 58.46 9.59 C 62.32599324881556 9.59 65.46 12.724006751184444 65.46000000000001 16.59 C 65.46000000000001 20.455993248815552 62.32599324881556 23.59 58.46 23.59 C 57.71921582333857 23.591630090286497 56.98304398895312 23.47343736458241 56.28 23.24 L 49.2 30.32 C 55.09592138312301 34.31877793368693 62.88659290252144 34.10694375663507 68.55650372428204 29.793682207390606 C 74.22641454604263 25.480420658146144 76.50957827824752 18.028803396525866 74.229194091926 11.279584043024059 C 71.94880990560449 4.530364689522251 65.61404548239767 -0.009480698176140834 58.49 0 Z" stroke-linecap="round" />
</g>
		<g transform="matrix(1 0 0 1 -313.9 -43.45)"  >
<path style="stroke: none; stroke-width: 1; stroke-dasharray: none; stroke-linecap: butt; stroke-dashoffset: 0; stroke-linejoin: miter; stroke-miterlimit: 4; fill: rgb(251,188,4); fill-rule: nonzero; opacity: 1;" vector-effect="non-scaling-stroke"  transform=" translate(-43.45, -51.48)" d="M 51.89 48.35 C 51.900853771047245 42.74586584841447 50.08597476902398 37.29069762956699 46.72 32.81 L 37.52 42 C 40.39716961079772 47.26242201869103 39.36178199723392 53.80344218057026 35 57.92 L 40 70.14 C 47.4083253012182 65.36878414757399 51.886575548040376 57.16179736218666 51.88999999999999 48.35000000000001 Z" stroke-linecap="round" />
</g>
		<g transform="matrix(1 0 0 1 -336.19 -46.57)"  >
<path style="stroke: none; stroke-width: 1; stroke-dasharray: none; stroke-linecap: butt; stroke-dashoffset: 0; stroke-linejoin: miter; stroke-miterlimit: 4; fill: rgb(234,67,53); fill-rule: nonzero; opacity: 1;" vector-effect="non-scaling-stroke"  transform=" translate(-21.16, -48.35)" d="M 26.18 61.54 L 25.94 61.54 C 20.296994979475585 61.54048934332122 15.27777736376318 57.95378818554928 13.450253400021374 52.61490608691945 C 11.622729436279569 47.27602398828961 13.391135840629225 41.365887825890695 17.850729642964993 37.908211001881675 C 22.31032344530076 34.450534177872655 28.474670765873057 34.210132887540425 33.190000000000005 37.31 L 42.3 28.200000000000003 C 33.441614511542234 21.018394397467226 20.931905005544884 20.46440985249381 11.473375220110654 26.834862488727968 C 2.014845434676424 33.20531512496213 -2.173871607762841 45.00592444562386 1.1514721803558956 55.914111333611686 C 4.476815968474632 66.82229822159951 14.536213788354765 74.27939191163053 25.940000000000015 74.29 C 27.699589080311117 74.29086578384627 29.454899665731897 74.11667465704879 31.179999999999996 73.77000000000001 Z" stroke-linecap="round" />
</g>
		<g transform="matrix(1 0 0 1 -298.46 36.05)"  >
<path style="stroke: none; stroke-width: 1; stroke-dasharray: none; stroke-linecap: butt; stroke-dashoffset: 0; stroke-linejoin: miter; stroke-miterlimit: 4; fill: rgb(66,133,244); fill-rule: nonzero; opacity: 1;" vector-effect="non-scaling-stroke"  transform=" translate(-58.89, -130.97)" d="M 58.84 72.11 C 53.082055388002395 72.10416705559726 47.354403089312356 72.94309965699361 41.839999999999975 74.6 L 49.13 92.41 C 52.303304260388494 91.6236028773608 55.56070752369813 91.22734144945302 58.829999999999984 91.22999999999999 C 77.77363588538512 91.23552317087943 94.07562616393571 104.62127794723915 97.76715310910153 123.20175156543797 C 101.45868005426735 141.7822251836368 91.51171461221946 160.38306377950397 74.00891808564188 167.62968263333443 C 56.50612155906429 174.87630148716488 36.321732608503595 168.75063738706268 25.79869163153107 152.99859054671765 C 15.275650654558547 137.24654370637256 17.34445010582793 116.25479802371852 30.740000000000002 102.85999999999999 C 33.53517105813843 100.07356381968047 36.726205309557514 97.71482678061673 40.209999999999994 95.85999999999999 L 33 78.1 C 6.124406956077227 91.26220672502346 -6.6003008992338295 122.49270982558821 3.4237817427839623 150.6894996166407 C 13.447864384801754 178.88628940769317 43.03075706154144 195.0762546576219 72.18371717201777 188.32006459725656 C 101.3366772824941 181.56387453689123 120.78230992677253 154.0115627467497 117.38147587708517 124.27983701309458 C 113.9806418273978 94.54811127943945 88.8155941499352 72.0985480474202 58.88999999999997 72.1 Z" stroke-linecap="round" />
</g>
		<g transform="matrix(1 0 0 1 -143.89 -0.25)"  >
<path style="stroke: none; stroke-width: 1; stroke-dasharray: none; stroke-linecap: butt; stroke-dashoffset: 0; stroke-linejoin: miter; stroke-miterlimit: 4; fill: rgb(95,99,104); fill-rule: nonzero; opacity: 1;" vector-effect="non-scaling-stroke"  transform=" translate(-213.46, -94.67)" d="M 174.72 24.34 L 191.27 24.34 L 191.27 149.27 L 252.2 149.27 L 252.2 165 L 174.72 165 Z" stroke-linecap="round" />
</g>
		<g transform="matrix(1 0 0 1 -55.65 18.96)"  >
<path style="stroke: none; stroke-width: 1; stroke-dasharray: none; stroke-linecap: butt; stroke-dashoffset: 0; stroke-linejoin: miter; stroke-miterlimit: 4; fill: rgb(95,99,104); fill-rule: nonzero; opacity: 1;" vector-effect="non-scaling-stroke"  transform=" translate(-301.69, -113.88)" d="M 276.19 158.23 C 268.71871201964893 153.794437271919 262.609707514085 147.39139800815974 258.53 139.72 C 254.26849982278748 131.76625058588428 252.09079663243804 122.86278161807334 252.19999999999996 113.84000000000003 C 252.09756163683107 104.83072680866714 254.27506109488897 95.9418506639253 258.53 88 C 262.609707514085 80.32860199184026 268.71871201964893 73.925562728081 276.19 69.49000000000001 C 291.97879395270553 60.41464814918881 311.40120604729447 60.41464814918881 327.19 69.49 C 334.66046592089793 73.9297885309676 340.7716957634005 80.3315352420441 344.86 87.99999999999997 C 349.11700781075245 95.95546985873489 351.2944240652578 104.8577656986397 351.19 113.87999999999995 C 351.2944240652578 122.90223430136025 349.11700781075245 131.80453014126505 344.86 139.75999999999993 C 340.774430870686 147.42716411448473 334.66678341501046 153.82878101168484 327.2 158.26999999999998 C 311.4112060472944 167.34535185081117 291.9887939527055 167.34535185081117 276.2 158.26999999999998 Z M 318.19 146.04999999999998 C 323.3858704461019 143.010505569957 327.64477952727026 138.59936903178502 330.5 133.3 C 333.6955209165334 127.32109037426983 335.2904928001558 120.61738565390442 335.13 113.84 C 335.2891289890131 107.06275807842292 333.694238507386 100.3593954925777 330.5 94.38 C 327.65297249743224 89.08456368969831 323.404821111903 84.67382019087924 318.22 81.63 C 313.20817029512324 78.69369173748369 307.49856676474417 77.16007772206426 301.69000000000005 77.19 C 289.595403405856 77.14259472185516 278.4536674693528 83.74695474766516 272.69000000000005 94.38000000000002 C 269.50349327747534 100.36194101610842 267.91232906990246 107.06411752679419 268.07000000000005 113.83999999999999 C 267.9114251973085 120.61597762183156 269.50264309135946 127.31838026647031 272.69000000000005 133.3 C 276.95179972197826 141.11704658869712 284.1914137491229 146.8803595872336 292.76491488669194 149.28124119285638 C 301.33841602426094 151.68212279847916 310.5182801625957 150.5168406940754 318.22 146.05 Z" stroke-linecap="round" />
</g>
		<g transform="matrix(1 0 0 1 51.93 18.96)"  >
<path style="stroke: none; stroke-width: 1; stroke-dasharray: none; stroke-linecap: butt; stroke-dashoffset: 0; stroke-linejoin: miter; stroke-miterlimit: 4; fill: rgb(95,99,104); fill-rule: nonzero; opacity: 1;" vector-effect="non-scaling-stroke"  transform=" translate(-409.27, -113.88)" d="M 383.77 158.23 C 376.3032165849895 153.78878101168485 370.195569129314 147.38716411448473 366.10999999999996 139.72 C 361.8529921892475 131.7645301412651 359.6755759347422 122.86223430136026 359.78 113.84 C 359.682325914103 104.83127503417035 361.8595393272721 95.94356656714176 366.11 88.00000000000001 C 370.19556912931404 80.33283588551527 376.30321658498957 73.93121898831518 383.77 69.49000000000002 C 399.55879395270557 60.41464814918881 418.9812060472945 60.41464814918881 434.77000000000004 69.49 C 442.2427153407752 73.92696273621277 448.354622907762 80.32941938957586 452.44 87.99999999999997 C 456.69700781075244 95.95546985873489 458.87442406525776 104.8577656986397 458.77 113.87999999999995 C 458.87442406525776 122.90223430136025 456.69700781075244 131.80453014126505 452.44 139.75999999999993 C 448.35735684681316 147.42927803115865 442.24903244390623 153.83160445798805 434.78 158.26999999999998 C 418.9912060472944 167.34535185081117 399.5687939527055 167.34535185081117 383.78 158.26999999999998 Z M 425.77 146.04999999999998 C 430.95257749245496 143.00333422545185 435.20004469044153 138.59330110050652 438.04999999999995 133.29999999999995 C 441.24082862673544 127.31931332016077 442.8355029855744 120.61685910352857 442.67999999999995 113.83999999999999 C 442.83414727852437 107.06328427744404 441.2395536115606 100.36116921068059 438.04999999999995 94.37999999999997 C 435.20004469044153 89.08669889949343 430.95257749245496 84.6766657745481 425.77 81.62999999999997 C 420.7581702951232 78.69369173748366 415.0485667647441 77.16007772206423 409.24 77.18999999999997 C 403.40100129685214 77.16897367570233 397.66147372346336 78.7013550602992 392.61 81.62999999999997 C 387.38555223954114 84.65252036998923 383.10310901270907 89.06651803709585 380.24 94.38 C 377.045761492614 100.35939549257768 375.45087101098693 107.06275807842292 375.61 113.84 C 375.4495071998442 120.61738565390439 377.0444790834666 127.32109037426979 380.24 133.29999999999995 C 383.10310901270907 138.61348196290413 387.38555223954114 143.02747963001073 392.61 146.04999999999998 C 397.6614737234634 148.97864493970076 403.40100129685214 150.51102632429763 409.24 150.48999999999998 C 415.06212217629076 150.52711684872338 420.7864798553805 148.99325154424793 425.81 146.05 Z" stroke-linecap="round" />
</g>
		<g transform="matrix(1 0 0 1 156.98 -0.25)"  >
<path style="stroke: none; stroke-width: 1; stroke-dasharray: none; stroke-linecap: butt; stroke-dashoffset: 0; stroke-linejoin: miter; stroke-miterlimit: 4; fill: rgb(95,99,104); fill-rule: nonzero; opacity: 1;" vector-effect="non-scaling-stroke"  transform=" translate(-514.33, -94.67)" d="M 470.66 24.34 L 487.2 24.34 L 487.2 113.26 L 537 62.67 L 558 62.67 L 558 63.45 L 516 105.86 L 556.1 164.26 L 556.1 165 L 536.26 165 L 504.33 117.3 L 487.2 134.47 L 487.2 165 L 470.66 165 Z" stroke-linecap="round" />
</g>
		<g transform="matrix(1 0 0 1 243.27 18.89)"  >
<path style="stroke: none; stroke-width: 1; stroke-dasharray: none; stroke-linecap: butt; stroke-dashoffset: 0; stroke-linejoin: miter; stroke-miterlimit: 4; fill: rgb(95,99,104); fill-rule: nonzero; opacity: 1;" vector-effect="non-scaling-stroke"  transform=" translate(-600.61, -113.82)" d="M 577.45 158.42 C 570.1727017556339 154.04300598494854 564.2530073018967 147.73212704391753 560.35 140.19 C 556.1752741464078 132.10015727256538 554.0692374180663 123.10226136469214 554.22 114.00000000000001 C 554.1513640853065 105.14523354837718 556.1294713373312 96.39433347324368 560 88.42999999999998 C 563.65091458326 80.77646850157066 569.3344265132168 74.27311948859509 576.43 69.63000000000002 C 583.7124703540475 64.92267651251724 592.2297876090305 62.486173824128166 600.9 62.63000000000001 Q 615.06 62.63000000000001 625.4599999999999 68.96000000000001 C 632.3569909344488 73.13451683183322 637.9103469760578 79.20155830729097 641.4599999999999 86.43999999999998 C 645.2863619906641 94.40737798001024 647.1841761846227 103.1633582683822 647 112 C 646.9933199019504 113.64374677782023 646.8663138072562 115.28479921189432 646.62 116.91 L 570.27 116.91 Q 570.84 127.91 575.56 135.43 C 578.4584220541157 140.22508827154545 582.6064758356453 144.14154238360626 587.56 146.76000000000002 C 592.2466029102927 149.23962190860942 597.4678529001901 150.53721066349516 602.77 150.54000000000002 Q 621.65 150.54000000000002 631.29 133.16000000000003 L 644.89 139.77000000000004 C 641.011260585804 147.2864757651735 635.2113699436009 153.64185861046698 628.08 158.19000000000005 Q 617.31 165 602.2 165 C 593.4994542538079 165.1441576699049 584.9302250150782 162.86595450259819 577.45 158.42 Z M 630 103.64 C 629.6945717754903 99.42177675895904 628.5379898452137 95.30910748335745 626.6 91.55 C 624.4311151443575 87.35745376860936 621.165025780299 83.83215096295893 617.15 81.34999999999998 Q 610.73 77.19 600.91 77.19 C 593.7878070225395 77.02779639388682 586.8802246193057 79.63382255224228 581.64 84.46 Q 573.71 91.74 571.25 103.63999999999999 Z" stroke-linecap="round" />
</g>
		<g transform="matrix(1 0 0 1 328.83 18.89)"  >
<path style="stroke: none; stroke-width: 1; stroke-dasharray: none; stroke-linecap: butt; stroke-dashoffset: 0; stroke-linejoin: miter; stroke-miterlimit: 4; fill: rgb(95,99,104); fill-rule: nonzero; opacity: 1;" vector-effect="non-scaling-stroke"  transform=" translate(-686.18, -113.82)" d="M 657.68 62.69 L 673.4399999999999 62.69 L 673.4399999999999 81.69 L 674.2199999999999 81.69 Q 677.1399999999999 73.50999999999999 685.5099999999999 68.06 C 690.6788951708854 64.57007978003816 696.7634114650436 62.68454071117954 703 62.64 C 707.0003526876999 62.5382997739062 710.9780703871728 63.270499521668775 714.68 64.78999999999999 L 714.68 82.5 C 710.3214115663378 80.3798411751655 705.5264047076555 79.31123964665913 700.68 79.38 C 695.9507455612907 79.35727225791001 691.3287617162316 80.78855124316244 687.4399999999999 83.47999999999999 C 683.3550828897899 86.28027334332556 680.0400673558125 90.06296741736611 677.8 94.47999999999999 C 675.4028120019698 99.08951627350284 674.1670454010275 104.2145149824108 674.1999999999999 109.41 L 674.1999999999999 165 L 657.68 165 Z" stroke-linecap="round" />
</g>
</g>
</g>
</svg>