<?xml version="1.0" encoding="UTF-8" standalone="no" ?>
<!DOCTYPE svg PUBLIC "-//W3C//DTD SVG 1.1//EN" "http://www.w3.org/Graphics/SVG/1.1/DTD/svg11.dtd">
<svg xmlns="http://www.w3.org/2000/svg" xmlns:xlink="http://www.w3.org/1999/xlink" version="1.1" width="200" height="60" viewBox="0 0 200 60" xml:space="preserve">
<desc>Created with Fabric.js 5.2.4</desc>
<defs>
</defs>
<rect x="0" y="0" width="100%" height="100%" fill="transparent"></rect>
<g transform="matrix(1 0 0 1 100 30)" id="f118d8be-443c-4671-8722-df1a7fb28d9f"  >
<rect style="stroke: none; stroke-width: 1; stroke-dasharray: none; stroke-linecap: butt; stroke-dashoffset: 0; stroke-linejoin: miter; stroke-miterlimit: 4; fill: rgb(255,255,255); fill-rule: nonzero; opacity: 1; visibility: hidden;" vector-effect="non-scaling-stroke"  x="-100" y="-30" rx="0" ry="0" width="200" height="60" />
</g>
<g transform="matrix(Infinity NaN NaN Infinity 0 0)" id="abbc1c51-7849-4921-a6a8-7662d0afb48c"  >
</g>
<g transform="matrix(0.85 0 0 0.85 100 30)"  >
<g style="" vector-effect="non-scaling-stroke"   >
		<g transform="matrix(12.97 0 0 12.97 -93.92 -3.47)"  >
<path style="stroke: none; stroke-width: 1; stroke-dasharray: none; stroke-linecap: butt; stroke-dashoffset: 0; stroke-linejoin: miter; stroke-miterlimit: 4; fill: rgb(0,103,140); fill-rule: evenodd; opacity: 1;" vector-effect="non-scaling-stroke"  transform=" translate(-1.88, -2.25)" d="M 2.92 2.906 C 2.787 2.903 2.683 2.916 2.596 2.9530000000000003 C 2.571 2.963 2.531 2.963 2.528 2.995 C 2.541 3.008 2.543 3.0300000000000002 2.555 3.048 C 2.5778950035663923 3.0867668937858177 2.607329800489625 3.121276655695815 2.6420000000000003 3.15 L 2.7490000000000006 3.227 C 2.8140000000000005 3.267 2.8870000000000005 3.29 2.9510000000000005 3.33 C 2.9880000000000004 3.353 3.0240000000000005 3.383 3.0510000000000006 3.408 C 3.0690000000000004 3.421 3.0810000000000004 3.443 3.1040000000000005 3.451 L 3.1040000000000005 3.446 C 3.0920000000000005 3.431 3.0890000000000004 3.4090000000000003 3.0770000000000004 3.3930000000000002 L 3.0270000000000006 3.345 C 2.978270564025009 3.280476676641298 2.919924293304422 3.2238167143230396 2.8540000000000005 3.177 C 2.8010000000000006 3.14 2.6840000000000006 3.09 2.6620000000000004 3.029 L 2.6590000000000003 3.026 C 2.696 3.0229999999999997 2.7390000000000003 3.009 2.7740000000000005 2.9989999999999997 C 2.8310000000000004 2.9839999999999995 2.8820000000000006 2.9869999999999997 2.9410000000000003 2.9719999999999995 L 3.0210000000000004 2.9489999999999994 L 3.0210000000000004 2.9339999999999993 C 2.9910000000000005 2.9039999999999995 2.9690000000000003 2.8639999999999994 2.938 2.8359999999999994 C 2.853 2.7629999999999995 2.7600000000000002 2.6909999999999994 2.6630000000000003 2.6309999999999993 C 2.611 2.5979999999999994 2.5450000000000004 2.575999999999999 2.49 2.547999999999999 C 2.47 2.5379999999999994 2.4370000000000003 2.532999999999999 2.4250000000000003 2.515999999999999 C 2.3950000000000005 2.478999999999999 2.378 2.430999999999999 2.357 2.387999999999999 L 2.22 2.097999999999999 C 2.1900000000000004 2.032999999999999 2.172 1.967999999999999 2.1350000000000002 1.907999999999999 C 1.9805614644559242 1.645360223130409 1.7576060090844923 1.4296637825850238 1.4899999999999998 1.283999999999999 C 1.4280000000000002 1.248999999999999 1.3550000000000002 1.2339999999999989 1.2770000000000001 1.2159999999999989 L 1.1520000000000001 1.208999999999999 C 1.1250000000000002 1.196999999999999 1.0990000000000002 1.165999999999999 1.0750000000000002 1.150999999999999 C 0.9800000000000002 1.0909999999999989 0.7350000000000001 0.960999999999999 0.6750000000000002 1.132999999999999 C 0.6300000000000001 1.240999999999999 0.7420000000000002 1.347999999999999 0.7800000000000001 1.402999999999999 C 0.8080000000000002 1.440999999999999 0.8450000000000002 1.484999999999999 0.8650000000000001 1.527999999999999 C 0.8770000000000001 1.555999999999999 0.8800000000000001 1.585999999999999 0.8920000000000001 1.615999999999999 L 0.9790000000000001 1.838999999999999 C 0.9970540287864463 1.874839784856337 1.0177791996509489 1.9092703106473647 1.041 1.9419999999999984 C 1.054 1.959999999999999 1.078 1.968999999999999 1.0830000000000002 1.998999999999999 C 1.0600000000000003 2.031999999999999 1.0580000000000003 2.081999999999999 1.0450000000000002 2.1239999999999988 C 0.9850000000000001 2.311999999999999 1.0080000000000002 2.545999999999999 1.0930000000000002 2.683999999999999 C 1.12 2.7259999999999986 1.1930000000000003 2.816999999999999 1.2680000000000002 2.7819999999999987 C 1.3430000000000002 2.751999999999999 1.3260000000000003 2.6569999999999987 1.3480000000000003 2.5739999999999985 C 1.3530000000000002 2.5539999999999985 1.3500000000000003 2.5409999999999986 1.3600000000000003 2.5269999999999984 L 1.3600000000000003 2.5299999999999985 L 1.4280000000000004 2.6679999999999984 C 1.4800000000000004 2.7499999999999982 1.5700000000000003 2.834999999999998 1.6450000000000005 2.8909999999999982 C 1.6850000000000005 2.920999999999998 1.7170000000000005 2.972999999999998 1.7670000000000003 2.9909999999999983 L 1.7670000000000003 2.9859999999999984 L 1.76 2.9859999999999984 C 1.75 2.9709999999999983 1.735 2.9639999999999986 1.722 2.9529999999999985 C 1.6903167910332615 2.922099400722609 1.6612193947537386 2.8886541176426976 1.635 2.8529999999999984 C 1.5643962517267311 2.757344077670671 1.5018484861596768 2.6559966286502563 1.4480000000000004 2.549999999999999 C 1.421 2.4979999999999984 1.398 2.4419999999999984 1.376 2.3899999999999983 C 1.3659999999999999 2.3699999999999983 1.3659999999999999 2.3399999999999985 1.349 2.3299999999999983 C 1.324 2.366999999999998 1.287 2.3979999999999984 1.269 2.4429999999999983 C 1.2369999999999999 2.5149999999999983 1.234 2.6029999999999984 1.222 2.6949999999999985 C 1.162 2.6849999999999987 1.144 2.6299999999999986 1.1239999999999999 2.5829999999999984 C 1.0739999999999998 2.4649999999999985 1.0659999999999998 2.2729999999999984 1.109 2.1379999999999986 C 1.121 2.1029999999999984 1.171 1.9929999999999986 1.151 1.9599999999999986 C 1.141 1.9279999999999986 1.108 1.9099999999999986 1.089 1.8849999999999987 C 1.067 1.8529999999999986 1.044 1.8129999999999986 1.029 1.7779999999999987 C 1 1.684 0.97 1.58 0.927 1.487 C 0.907 1.444 0.872 1.4 0.843 1.36 C 0.812 1.314 0.777 1.282 0.752 1.23 C 0.743 1.21 0.732 1.18 0.745 1.16 C 0.748 1.147 0.755 1.142 0.768 1.138 C 0.79 1.1199999999999999 0.851 1.1429999999999998 0.873 1.1529999999999998 C 0.935 1.1779999999999997 0.986 1.2009999999999998 1.038 1.2359999999999998 C 1.061 1.2529999999999997 1.086 1.2839999999999998 1.116 1.2929999999999997 L 1.151 1.2929999999999997 C 1.204 1.3049999999999997 1.264 1.2959999999999996 1.314 1.3109999999999997 C 1.4020000000000001 1.3389999999999997 1.482 1.3809999999999998 1.554 1.4259999999999997 C 1.7746813091428992 1.5666821770432997 1.9541121061599522 1.7633659353119926 2.0739999999999994 1.9959999999999993 C 2.094 2.0339999999999994 2.102 2.0689999999999995 2.121 2.1089999999999995 L 2.234 2.3539999999999996 C 2.269 2.4319999999999995 2.302 2.5119999999999996 2.352 2.5769999999999995 C 2.377 2.6119999999999997 2.477 2.6299999999999994 2.522 2.6489999999999996 C 2.5549999999999997 2.6639999999999997 2.6069999999999998 2.6769999999999996 2.637 2.6959999999999997 L 2.804 2.8089999999999997 C 2.831 2.8289999999999997 2.904 2.8709999999999996 2.919 2.904 z" stroke-linecap="round" />
</g>
		<g transform="matrix(12.97 0 0 12.97 -102.56 -12.72)"  >
<path style="stroke: none; stroke-width: 1; stroke-dasharray: none; stroke-linecap: butt; stroke-dashoffset: 0; stroke-linejoin: miter; stroke-miterlimit: 4; fill: rgb(0,103,140); fill-rule: evenodd; opacity: 1;" vector-effect="non-scaling-stroke"  transform=" translate(-1.22, -1.54)" d="M 1.22 1.457 C 1.192 1.457 1.172 1.46 1.152 1.465 L 1.152 1.468 L 1.1549999999999998 1.468 C 1.1679999999999997 1.4949999999999999 1.1919999999999997 1.513 1.2079999999999997 1.536 L 1.2459999999999998 1.616 L 1.2489999999999997 1.6130000000000002 C 1.2719999999999996 1.5960000000000003 1.2839999999999996 1.5700000000000003 1.2839999999999996 1.5300000000000002 C 1.2739999999999996 1.5180000000000002 1.2719999999999996 1.5070000000000003 1.2639999999999996 1.4950000000000003 C 1.2539999999999996 1.4780000000000004 1.2319999999999995 1.4700000000000004 1.2189999999999996 1.4570000000000003 z" stroke-linecap="round" />
</g>
		<g transform="matrix(12.97 0 0 12.97 60.96 -2)"  >
<path style="stroke: none; stroke-width: 1; stroke-dasharray: none; stroke-linecap: butt; stroke-dashoffset: 0; stroke-linejoin: miter; stroke-miterlimit: 4; fill: rgb(206,139,44); fill-rule: evenodd; opacity: 1;" vector-effect="non-scaling-stroke"  transform=" translate(-13.83, -2.36)" d="M 10.064 3.34 L 11.498 3.34 C 11.665999999999999 3.34 11.825999999999999 3.306 11.956 3.2449999999999997 C 12.173 3.1449999999999996 12.276 3.0119999999999996 12.276 2.8369999999999997 L 12.276 2.4709999999999996 C 12.276 2.3309999999999995 12.158 2.1959999999999997 11.922 2.1049999999999995 C 11.7862039761538 2.05679817010463 11.643096017259753 2.03243936859075 11.499 2.0329999999999995 L 10.897 2.0329999999999995 C 10.695 2.0329999999999995 10.6 1.9729999999999994 10.573 1.8389999999999995 C 10.569 1.8239999999999996 10.569 1.8089999999999995 10.569 1.7929999999999995 L 10.569 1.5679999999999994 C 10.569 1.5559999999999994 10.569 1.5409999999999995 10.573 1.5259999999999994 C 10.6 1.4229999999999994 10.653 1.3959999999999995 10.829 1.3759999999999994 L 12.297 1.3759999999999994 L 12.297 1.0439999999999994 L 10.9 1.0439999999999994 C 10.698 1.0439999999999994 10.59 1.0559999999999994 10.496 1.0859999999999994 C 10.202 1.1759999999999995 10.073 1.3219999999999994 10.073 1.5779999999999994 L 10.073 1.8679999999999994 C 10.073 2.0929999999999995 10.325000000000001 2.2839999999999994 10.753 2.3279999999999994 C 10.799 2.3319999999999994 10.848 2.3319999999999994 10.898 2.3319999999999994 L 11.413 2.3319999999999994 C 11.433 2.3319999999999994 11.451 2.3319999999999994 11.466000000000001 2.3359999999999994 C 11.622000000000002 2.3509999999999995 11.691 2.3779999999999992 11.736 2.4359999999999995 C 11.766 2.4659999999999993 11.774000000000001 2.4929999999999994 11.774000000000001 2.5279999999999996 L 11.774000000000001 2.8179999999999996 C 11.774000000000001 2.8519999999999994 11.751000000000001 2.8979999999999997 11.704 2.9359999999999995 C 11.657 2.9739999999999993 11.586 3.0009999999999994 11.49 3.0059999999999993 C 11.47 3.0059999999999993 11.46 3.0099999999999993 11.44 3.0099999999999993 L 10.064 3.0099999999999993 z M 15.379000000000001 2.764 C 15.379000000000001 3.1039999999999996 15.635000000000002 3.2939999999999996 16.146 3.332 L 16.291 3.34 L 17.587 3.34 L 17.587 3.01 L 16.28 3.01 C 15.98 3.01 15.88 2.9379999999999997 15.88 2.7619999999999996 L 15.88 1.045 L 15.38 1.045 L 15.38 2.7649999999999997 z M 12.592000000000002 2.779 L 12.592000000000002 1.598 C 12.592000000000002 1.298 12.805000000000001 1.114 13.222000000000003 1.058 L 13.355000000000004 1.05 L 14.301000000000004 1.05 C 14.351000000000004 1.05 14.393000000000004 1.054 14.441000000000004 1.058 C 14.857000000000005 1.115 15.066000000000004 1.298 15.066000000000004 1.598 L 15.066000000000004 2.78 C 15.066000000000004 3.024 14.978000000000005 3.154 14.772000000000004 3.2399999999999998 L 15.260000000000003 3.682 L 14.684000000000003 3.682 L 14.287000000000003 3.324 L 13.887000000000002 3.347 L 13.353000000000002 3.347 C 13.265000000000002 3.347 13.166000000000002 3.337 13.053 3.309 C 12.737 3.221 12.58 3.053 12.58 2.779 z M 13.130000000000003 2.753 C 13.130000000000003 2.7680000000000002 13.138000000000002 2.783 13.142000000000003 2.803 C 13.169000000000002 2.94 13.298000000000004 3.016 13.496000000000002 3.016 L 13.946000000000002 3.016 L 13.534 2.642 L 14.110000000000001 2.642 L 14.472000000000001 2.9699999999999998 C 14.542000000000002 2.932 14.582 2.8779999999999997 14.598 2.8099999999999996 C 14.602 2.7949999999999995 14.602 2.776 14.602 2.76 L 14.602 1.63 C 14.602 1.615 14.602 1.5999999999999999 14.598 1.5839999999999999 C 14.571000000000002 1.4539999999999997 14.442 1.382 14.248000000000001 1.382 L 13.498000000000001 1.382 C 13.278 1.382 13.132000000000001 1.4769999999999999 13.132000000000001 1.63 z" stroke-linecap="round" />
</g>
		<g transform="matrix(12.97 0 0 12.97 -33.25 0)"  >
<path style="stroke: none; stroke-width: 1; stroke-dasharray: none; stroke-linecap: butt; stroke-dashoffset: 0; stroke-linejoin: miter; stroke-miterlimit: 4; fill: rgb(0,103,140); fill-rule: evenodd; opacity: 1;" vector-effect="non-scaling-stroke"  transform=" translate(-6.56, -2.52)" d="M 3.445 3.342 L 3.941 3.342 L 3.941 1.378 L 4.715 3.09 C 4.803 3.296 4.929 3.372 5.173 3.372 C 5.417 3.372 5.535 3.296 5.627 3.09 L 6.397 1.378 L 6.397 3.3419999999999996 L 6.897 3.3419999999999996 L 6.897 1.378 C 6.897 1.188 6.821000000000001 1.0959999999999999 6.6610000000000005 1.0459999999999998 C 6.284000000000001 0.9319999999999998 6.031000000000001 1.031 5.917000000000001 1.2859999999999998 L 5.157000000000001 2.979 L 4.425000000000001 1.286 C 4.315 1.0310000000000001 4.059000000000001 0.932 3.678000000000001 1.046 C 3.5220000000000007 1.096 3.4450000000000007 1.186 3.4450000000000007 1.3780000000000001 L 3.4450000000000007 3.342 z M 7.308 1.744 L 7.808 1.744 L 7.808 2.824 C 7.804 2.884 7.827999999999999 3.022 8.108 3.026 L 9.18 3.026 L 9.18 1.7359999999999998 L 9.68 1.7359999999999998 L 9.68 3.5009999999999994 C 9.68 3.9359999999999995 9.142 4.031 8.89 4.034999999999999 L 7.32 4.034999999999999 L 7.32 3.7029999999999994 L 8.895 3.7029999999999994 C 9.215 3.6689999999999996 9.177 3.5089999999999995 9.177 3.454999999999999 L 9.177 3.3249999999999993 L 8.12 3.3249999999999993 C 7.627999999999999 3.3209999999999993 7.311999999999999 3.104999999999999 7.307999999999999 2.8549999999999995 L 7.307999999999999 1.744 z" stroke-linecap="round" />
</g>
</g>
</g>
</svg>