<?xml version="1.0" encoding="UTF-8" standalone="no" ?>
<!DOCTYPE svg PUBLIC "-//W3C//DTD SVG 1.1//EN" "http://www.w3.org/Graphics/SVG/1.1/DTD/svg11.dtd">
<svg xmlns="http://www.w3.org/2000/svg" xmlns:xlink="http://www.w3.org/1999/xlink" version="1.1" width="150" height="60" viewBox="0 0 150 60" xml:space="preserve">
<desc>Created with Fabric.js 5.2.4</desc>
<defs>
</defs>
<g transform="matrix(Infinity NaN NaN Infinity 0 0)" id="35337102-7316-44c7-93d7-d67626036ed9"  >
</g>
<g transform="matrix(1 0 0 1 75 30)" id="92f85e07-1942-41ad-a1b5-ac66c236d322"  >
<rect style="stroke: none; stroke-width: 1; stroke-dasharray: none; stroke-linecap: butt; stroke-dashoffset: 0; stroke-linejoin: miter; stroke-miterlimit: 4; fill: rgb(255,255,255); fill-rule: nonzero; opacity: 1; visibility: hidden;" vector-effect="non-scaling-stroke"  x="-75" y="-30" rx="0" ry="0" width="150" height="60" />
</g>
<g transform="matrix(0.07 0 0 0.07 75 30)"  >
<g style="" vector-effect="non-scaling-stroke"   >
		<g transform="matrix(0.71 -0.71 0.71 0.71 -509.09 0)"  >
<ellipse style="stroke: none; stroke-width: 1; stroke-dasharray: none; stroke-linecap: butt; stroke-dashoffset: 0; stroke-linejoin: miter; stroke-miterlimit: 4; fill: rgb(117,170,219); fill-rule: nonzero; opacity: 1;" vector-effect="non-scaling-stroke"  cx="0" cy="0" rx="309.8" ry="309.8" />
</g>
		<g transform="matrix(1 0 0 1 -58.83 -3.33)"  >
<path style="stroke: none; stroke-width: 1; stroke-dasharray: none; stroke-linecap: butt; stroke-dashoffset: 0; stroke-linejoin: miter; stroke-miterlimit: 4; fill: rgb(77,77,77); fill-rule: nonzero; opacity: 1;" vector-effect="non-scaling-stroke"  transform=" translate(-768.95, -309.6)" d="M 694.4 404.8 C 710.5 415.1 733.5 422.90000000000003 758.3 422.90000000000003 C 795 422.90000000000003 816.4 403.50000000000006 816.4 375.50000000000006 C 816.4 350.00000000000006 801.6 334.70000000000005 764.1 320.70000000000005 C 718.8000000000001 304.20000000000005 690.8000000000001 280.30000000000007 690.8000000000001 241.60000000000005 C 690.8000000000001 198.30000000000007 726.6 166.20000000000005 780.6 166.20000000000005 C 808.6 166.20000000000005 829.6 172.80000000000004 841.6 179.80000000000004 L 831.7 209.10000000000005 C 823 203.70000000000005 804.5 195.90000000000006 779.4000000000001 195.90000000000006 C 741.5000000000001 195.90000000000006 727.1000000000001 218.60000000000005 727.1000000000001 237.50000000000006 C 727.1000000000001 263.50000000000006 744.0000000000001 276.20000000000005 782.3000000000002 291.1000000000001 C 829.3000000000002 309.2000000000001 852.8000000000002 331.9000000000001 852.8000000000002 372.70000000000005 C 852.8000000000002 415.50000000000006 821.5000000000002 453.00000000000006 756.0000000000002 453.00000000000006 C 729.2000000000003 453.00000000000006 700.0000000000002 444.80000000000007 685.1000000000003 434.90000000000003 L 694.4 404.8 z" stroke-linecap="round" />
</g>
		<g transform="matrix(1 0 0 1 108.32 14.17)"  >
<path style="stroke: none; stroke-width: 1; stroke-dasharray: none; stroke-linecap: butt; stroke-dashoffset: 0; stroke-linejoin: miter; stroke-miterlimit: 4; fill: rgb(77,77,77); fill-rule: nonzero; opacity: 1;" vector-effect="non-scaling-stroke"  transform=" translate(-936.1, -327.1)" d="M 943.3 201.3 L 943.3 249.10000000000002 L 995.1999999999999 249.10000000000002 L 995.1999999999999 276.70000000000005 L 943.3 276.70000000000005 L 943.3 384.20000000000005 C 943.3 408.90000000000003 950.3 422.90000000000003 970.5 422.90000000000003 C 980.4 422.90000000000003 986.2 422.1 991.5 420.40000000000003 L 993.1 448.00000000000006 C 986.1 450.50000000000006 975 452.90000000000003 961 452.90000000000003 C 944.1 452.90000000000003 930.5 447.1 921.9 437.70000000000005 C 912 426.6 907.9 408.90000000000003 907.9 385.40000000000003 L 907.9 276.7 L 877 276.7 L 877 249.1 L 907.9 249.1 L 907.9 212 L 943.3 201.3 z" stroke-linecap="round" />
</g>
		<g transform="matrix(1 0 0 1 291.77 38.17)"  >
<path style="stroke: none; stroke-width: 1; stroke-dasharray: none; stroke-linecap: butt; stroke-dashoffset: 0; stroke-linejoin: miter; stroke-miterlimit: 4; fill: rgb(77,77,77); fill-rule: nonzero; opacity: 1;" vector-effect="non-scaling-stroke"  transform=" translate(-1119.55, -351.1)" d="M 1202.8 393.7 C 1202.8 414.7 1203.2 432.8 1204.3999999999999 448.5 L 1172.3 448.5 L 1170.2 416 L 1169.4 416 C 1160.3000000000002 432.1 1138.9 453.1 1103.5 453.1 C 1072.2 453.1 1034.7 435.40000000000003 1034.7 365.8 L 1034.7 249.1 L 1071 249.1 L 1071 359.1 C 1071 397 1082.9 423 1115.5 423 C 1139.8 423 1156.7 406.1 1163.3 389.6 C 1165.3999999999999 384.70000000000005 1166.6 378.1 1166.6 371.1 L 1166.6 249.10000000000002 L 1202.8999999999999 249.10000000000002 L 1202.8999999999999 393.7 z" stroke-linecap="round" />
</g>
		<g transform="matrix(1 0 0 1 514.72 -8.43)"  >
<path style="stroke: none; stroke-width: 1; stroke-dasharray: none; stroke-linecap: butt; stroke-dashoffset: 0; stroke-linejoin: miter; stroke-miterlimit: 4; fill: rgb(77,77,77); fill-rule: nonzero; opacity: 1;" vector-effect="non-scaling-stroke"  transform=" translate(-1342.5, -304.5)" d="M 1434.8 156 L 1434.8 397 C 1434.8 414.7 1435.6 434.9 1436.3999999999999 448.5 L 1404.3 448.5 L 1402.7 413.9 L 1401.5 413.9 C 1390.8 436.09999999999997 1366.9 453 1334.3 453 C 1286.1 453 1248.6 412.2 1248.6 351.6 C 1248.1999999999998 285.3 1289.8 244.90000000000003 1338 244.90000000000003 C 1368.9 244.90000000000003 1389.1 259.3 1398.2 275.00000000000006 L 1399 275.00000000000006 L 1399 156 L 1434.8 156 z M 1398.9 330.2 C 1398.9 325.7 1398.5 319.5 1397.3000000000002 315 C 1391.9 292.3 1372.2000000000003 273.4 1345.0000000000002 273.4 C 1307.5000000000002 273.4 1285.3000000000002 306.4 1285.3000000000002 350 C 1285.3000000000002 390.4 1305.5000000000002 423.8 1344.2000000000003 423.8 C 1368.5000000000002 423.8 1390.8000000000002 407.3 1397.3000000000002 380.5 C 1398.5000000000002 375.6 1398.9 370.6 1398.9 364.8 L 1398.9 330.2 z" stroke-linecap="round" />
</g>
		<g transform="matrix(1 0 0 1 685.47 -3.53)"  >
<path style="stroke: none; stroke-width: 1; stroke-dasharray: none; stroke-linecap: butt; stroke-dashoffset: 0; stroke-linejoin: miter; stroke-miterlimit: 4; fill: rgb(77,77,77); fill-rule: nonzero; opacity: 1;" vector-effect="non-scaling-stroke"  transform=" translate(-1513.25, -309.4)" d="M 1535.7 193 C 1535.7 205.4 1527 215.2 1512.6000000000001 215.2 C 1499.4 215.2 1490.8000000000002 205.29999999999998 1490.8000000000002 193 C 1490.8000000000002 180.6 1499.9 170.3 1513.5000000000002 170.3 C 1526.6 170.4 1535.7 180.3 1535.7 193 z M 1495.3 448.5 L 1495.3 249.1 L 1531.6 249.1 L 1531.6 448.5 L 1495.3 448.5 z" stroke-linecap="round" />
</g>
		<g transform="matrix(1 0 0 1 846.97 36.02)"  >
<path style="stroke: none; stroke-width: 1; stroke-dasharray: none; stroke-linecap: butt; stroke-dashoffset: 0; stroke-linejoin: miter; stroke-miterlimit: 4; fill: rgb(77,77,77); fill-rule: nonzero; opacity: 1;" vector-effect="non-scaling-stroke"  transform=" translate(-1674.75, -348.95)" d="M 1772.2 347.1 C 1772.2 420.8 1720.7 453 1672.9 453 C 1619.3000000000002 453 1577.3000000000002 413.4 1577.3000000000002 350.4 C 1577.3000000000002 284.09999999999997 1621.4 244.89999999999998 1676.2000000000003 244.89999999999998 C 1733.5 245 1772.2 286.6 1772.2 347.1 z M 1614.4 349.2 C 1614.4 392.9 1639.1000000000001 425.79999999999995 1674.6000000000001 425.79999999999995 C 1709.2 425.79999999999995 1735.2 393.29999999999995 1735.2 348.29999999999995 C 1735.2 314.49999999999994 1718.3 272.09999999999997 1675.5 272.09999999999997 C 1632.9 272.1 1614.4 311.7 1614.4 349.2 z" stroke-linecap="round" />
</g>
		<g transform="matrix(1 0 0 1 -493.88 -15.03)"  >
<path style="stroke: none; stroke-width: 1; stroke-dasharray: none; stroke-linecap: butt; stroke-dashoffset: 0; stroke-linejoin: miter; stroke-miterlimit: 4; fill: rgb(255,255,255); fill-rule: nonzero; opacity: 1;" vector-effect="non-scaling-stroke"  transform=" translate(-333.9, -297.9)" d="M 424.7 411.8 L 458.3 411.8 L 458.3 437.90000000000003 L 407 437.90000000000003 L 322 310.5 L 276.7 310.5 L 276.7 411.8 L 321 411.8 L 321 437.90000000000003 L 209.5 437.90000000000003 L 209.5 411.8 L 247.8 411.8 L 247.8 187.3 L 209.5 182.60000000000002 L 209.5 157.90000000000003 C 224 161.20000000000005 236.6 163.50000000000003 252.4 163.50000000000003 C 276.2 163.50000000000003 300.5 157.90000000000003 324.3 157.90000000000003 C 370.5 157.90000000000003 413.4 178.90000000000003 413.4 230.20000000000005 C 413.4 269.90000000000003 389.59999999999997 295.1 352.7 305.80000000000007 L 424.7 411.8 z M 276.7 285.3 L 301 285.8 C 360.3 286.7 383.1 263.90000000000003 383.1 233.5 C 383.1 198 357.40000000000003 184 324.8 184 C 309.40000000000003 184 293.5 185.4 276.7 187.3 L 276.7 285.3 z" stroke-linecap="round" />
</g>
		<g transform="matrix(1 0 0 1 924.02 -119.13)"  >
<path style="stroke: none; stroke-width: 1; stroke-dasharray: none; stroke-linecap: butt; stroke-dashoffset: 0; stroke-linejoin: miter; stroke-miterlimit: 4; fill: rgb(77,77,77); fill-rule: nonzero; opacity: 1;" vector-effect="non-scaling-stroke"  transform=" translate(-1751.8, -193.8)" d="M 1751.8 170.4 C 1738.8999999999999 170.4 1728.3999999999999 180.9 1728.3999999999999 193.8 C 1728.3999999999999 206.70000000000002 1738.8999999999999 217.20000000000002 1751.8 217.20000000000002 C 1764.7 217.20000000000002 1775.2 206.70000000000002 1775.2 193.8 C 1775.2 180.9 1764.7 170.4 1751.8 170.4 z M 1771.4 193.8 C 1771.4 204.60000000000002 1762.6000000000001 213.3 1751.9 213.3 C 1741.1000000000001 213.3 1732.4 204.5 1732.4 193.8 C 1732.4 183 1741.2 174.3 1751.9 174.3 C 1762.6 174.2 1771.4 183 1771.4 193.8 z" stroke-linecap="round" />
</g>
		<g transform="matrix(1 0 0 1 924.02 -119.18)"  >
<path style="stroke: none; stroke-width: 1; stroke-dasharray: none; stroke-linecap: butt; stroke-dashoffset: 0; stroke-linejoin: miter; stroke-miterlimit: 4; fill: rgb(77,77,77); fill-rule: nonzero; opacity: 1;" vector-effect="non-scaling-stroke"  transform=" translate(-1751.8, -193.75)" d="M 1760.1 203.3 L 1754.3 194.8 C 1757.6 193.60000000000002 1759.3 191.20000000000002 1759.3 187.8 C 1759.3 182.70000000000002 1755 180.9 1750.8999999999999 180.9 C 1749.8 180.9 1748.6999999999998 181 1747.6999999999998 181.20000000000002 C 1746.6999999999998 181.3 1745.6 181.4 1744.6 181.4 C 1743.1999999999998 181.4 1742.1 181.20000000000002 1740.8999999999999 180.9 L 1740.3 180.8 L 1740.3 184.10000000000002 L 1743.7 184.50000000000003 L 1743.7 203.30000000000004 L 1740.3 203.30000000000004 L 1740.3 206.70000000000005 L 1751.2 206.70000000000005 L 1751.2 203.30000000000004 L 1747.3 203.30000000000004 L 1747.3 195.40000000000003 L 1750.5 195.40000000000003 L 1757.8 206.40000000000003 L 1758 206.60000000000002 L 1763.3 206.60000000000002 L 1763.3 203.20000000000002 L 1760.1 203.20000000000002 z M 1755.6 188.1 C 1755.6 189.29999999999998 1755.1 190.29999999999998 1754.1999999999998 191 C 1753.1 191.8 1751.3999999999999 192.2 1749.1999999999998 192.2 L 1747.2999999999997 192.2 L 1747.2999999999997 184.5 C 1748.6999999999998 184.4 1749.8999999999996 184.3 1750.9999999999998 184.3 C 1753.1 184.3 1755.6 185 1755.6 188.1 z" stroke-linecap="round" />
</g>
</g>
</g>
</svg>