<?xml version="1.0" encoding="UTF-8" standalone="no" ?>
<!DOCTYPE svg PUBLIC "-//W3C//DTD SVG 1.1//EN" "http://www.w3.org/Graphics/SVG/1.1/DTD/svg11.dtd">
<svg xmlns="http://www.w3.org/2000/svg" xmlns:xlink="http://www.w3.org/1999/xlink" version="1.1" width="170" height="60" viewBox="0 0 170 60" xml:space="preserve">
<desc>Created with Fabric.js 5.2.4</desc>
<defs>
</defs>
<rect x="0" y="0" width="100%" height="100%" fill="transparent"></rect>
<g transform="matrix(Infinity NaN NaN Infinity 0 0)" id="5b67beeb-b976-49be-913a-09d71723f9fa"  >
</g>
<g transform="matrix(1 0 0 1 85 30)" id="782cc70a-5315-49d1-bf90-259054cf7bc5"  >
<rect style="stroke: none; stroke-width: 1; stroke-dasharray: none; stroke-linecap: butt; stroke-dashoffset: 0; stroke-linejoin: miter; stroke-miterlimit: 4; fill: rgb(255,255,255); fill-rule: nonzero; opacity: 1; visibility: hidden;" vector-effect="non-scaling-stroke"  x="-85" y="-30" rx="0" ry="0" width="170" height="60" />
</g>
<g transform="matrix(0.3 0 0 0.3 85 30)"  >
<g style="" vector-effect="non-scaling-stroke"   >
		<g transform="matrix(1 0 0 1 -200.82 -42.68)"  >
<polygon style="stroke: none; stroke-width: 1; stroke-dasharray: none; stroke-linecap: butt; stroke-dashoffset: 0; stroke-linejoin: miter; stroke-miterlimit: 4; fill: rgb(112,153,166); fill-rule: nonzero; opacity: 1;" vector-effect="non-scaling-stroke"  points="-1.87,-6.67 -1.87,-1.63 -10.89,-1.63 -10.89,1.65 -1.87,1.65 -1.87,11.69 1.65,11.69 1.65,1.65 10.89,1.65 10.89,-1.63 1.65,-1.63 1.65,-11.69 -1.87,-11.69 " />
</g>
		<g transform="matrix(1 0 0 1 -229.57 -26.83)"  >
<polygon style="stroke: none; stroke-width: 1; stroke-dasharray: none; stroke-linecap: butt; stroke-dashoffset: 0; stroke-linejoin: miter; stroke-miterlimit: 4; fill: rgb(235,145,44); fill-rule: nonzero; opacity: 1;" vector-effect="non-scaling-stroke"  points="-2.63,-9.72 -2.63,-2.41 -16.27,-2.41 -16.27,2.18 -2.63,2.18 -2.63,17.03 2.43,17.03 2.43,2.18 16.27,2.18 16.27,-2.41 2.43,-2.41 2.43,-17.03 -2.63,-17.03 " />
</g>
		<g transform="matrix(1 0 0 1 -172.32 -26.83)"  >
<polygon style="stroke: none; stroke-width: 1; stroke-dasharray: none; stroke-linecap: butt; stroke-dashoffset: 0; stroke-linejoin: miter; stroke-miterlimit: 4; fill: rgb(89,135,155); fill-rule: nonzero; opacity: 1;" vector-effect="non-scaling-stroke"  points="-2.63,-9.72 -2.63,-2.41 -16.27,-2.41 -16.27,2.41 -2.63,2.41 -2.63,17.03 2.63,17.03 2.63,2.41 16.27,2.41 16.27,-2.41 2.63,-2.41 2.63,-17.03 -2.63,-17.03 " />
</g>
		<g transform="matrix(1 0 0 1 -200.94 -0.36)"  >
<polygon style="stroke: none; stroke-width: 1; stroke-dasharray: none; stroke-linecap: butt; stroke-dashoffset: 0; stroke-linejoin: miter; stroke-miterlimit: 4; fill: rgb(232,118,44); fill-rule: nonzero; opacity: 1;" vector-effect="non-scaling-stroke"  points="-3.07,-11.24 -3.07,-3.05 -18.25,-3.05 -18.25,3.05 -3.07,3.05 -3.07,19.44 3.07,19.44 3.07,3.05 18.25,3.05 18.25,-3.05 3.07,-3.05 3.07,-19.44 -3.07,-19.44 " />
</g>
		<g transform="matrix(1 0 0 1 -157 -0.24)"  >
<polygon style="stroke: none; stroke-width: 1; stroke-dasharray: none; stroke-linecap: butt; stroke-dashoffset: 0; stroke-linejoin: miter; stroke-miterlimit: 4; fill: rgb(91,101,145); fill-rule: nonzero; opacity: 1;" vector-effect="non-scaling-stroke"  points="-2.3,-7.22 -2.3,-2.08 -11.54,-2.08 -11.54,2.08 -2.3,2.08 -2.3,12.34 2.3,12.34 2.3,2.08 11.54,2.08 11.54,-2.08 2.3,-2.08 2.3,-12.34 -2.3,-12.34 " />
</g>
		<g transform="matrix(1 0 0 1 -245.52 -0.35)"  >
<polygon style="stroke: none; stroke-width: 1; stroke-dasharray: none; stroke-linecap: butt; stroke-dashoffset: 0; stroke-linejoin: miter; stroke-miterlimit: 4; fill: rgb(112,153,166); fill-rule: nonzero; opacity: 1;" vector-effect="non-scaling-stroke"  points="-1.87,-6.66 -1.87,-1.74 -10.89,-1.74 -10.89,1.74 -1.87,1.74 -1.87,11.57 1.65,11.57 1.65,1.74 10.89,1.41 10.89,-1.74 1.65,-1.74 1.65,-11.57 -1.87,-11.57 " />
</g>
		<g transform="matrix(1 0 0 1 -229.57 25.89)"  >
<polygon style="stroke: none; stroke-width: 1; stroke-dasharray: none; stroke-linecap: butt; stroke-dashoffset: 0; stroke-linejoin: miter; stroke-miterlimit: 4; fill: rgb(199,32,53); fill-rule: nonzero; opacity: 1;" vector-effect="non-scaling-stroke"  points="-2.63,-9.72 -2.63,-2.41 -16.27,-2.41 -16.27,2.41 -2.63,2.41 -2.63,17.03 2.63,17.03 2.63,2.41 16.27,2.41 16.27,-2.41 2.63,-2.41 2.63,-17.03 -2.63,-17.03 " />
</g>
		<g transform="matrix(1 0 0 1 -172.32 25.89)"  >
<polygon style="stroke: none; stroke-width: 1; stroke-dasharray: none; stroke-linecap: butt; stroke-dashoffset: 0; stroke-linejoin: miter; stroke-miterlimit: 4; fill: rgb(31,68,126); fill-rule: nonzero; opacity: 1;" vector-effect="non-scaling-stroke"  points="-2.63,-9.72 -2.63,-2.41 -16.27,-2.41 -16.27,2.18 -2.63,2.18 -2.63,17.03 2.63,17.03 2.63,2.18 16.27,2.18 16.27,-2.41 2.63,-2.41 2.63,-17.03 -2.63,-17.03 " />
</g>
		<g transform="matrix(1 0 0 1 -200.82 41.98)"  >
<polygon style="stroke: none; stroke-width: 1; stroke-dasharray: none; stroke-linecap: butt; stroke-dashoffset: 0; stroke-linejoin: miter; stroke-miterlimit: 4; fill: rgb(91,101,145); fill-rule: nonzero; opacity: 1;" vector-effect="non-scaling-stroke"  points="-2.3,-7.2 -2.3,-2.08 -11.54,-2.08 -11.54,2.08 -2.3,2.08 -2.3,12.34 2.3,12.34 2.3,2.08 11.54,2.08 11.54,-2.08 2.3,-2.08 2.3,-12.34 -2.3,-12.34 " />
</g>
		<g transform="matrix(1 0 0 1 68.19 -1.37)"  >
<path style="stroke: none; stroke-width: 1; stroke-dasharray: none; stroke-linecap: butt; stroke-dashoffset: 0; stroke-linejoin: miter; stroke-miterlimit: 4; fill: rgb(31,68,126); fill-rule: nonzero; opacity: 1;" vector-effect="non-scaling-stroke"  transform=" translate(-324.38, -52.97)" d="M 337.263198 21.8342384 L 337.263198 84.1007344 L 330.237735 84.1007344 L 330.237735 21.8342384 L 337.263198 21.8342384 Z M 162.691703 30.5802232 L 162.691703 50.4481512 L 181.596958 50.4481512 L 181.596958 57.0025192 L 162.691703 57.0025192 L 162.691703 78.4066272 L 155.66624 78.4066272 L 155.66624 57.0025192 L 136.760985 57.0025192 L 136.760985 50.4481512 L 155.66624 50.4481512 L 155.66624 30.5802232 L 162.691703 30.5802232 Z M 382.570267 44.2215016 C 383.840176 44.2829488 385.458286 44.4877728 386.195652 44.6721144 C 386.912536 44.856456 388.100515 45.2865864 388.817399 45.6347872 C 389.554766 45.9625056 390.742745 46.6793896 391.459629 47.2324144 C 392.196995 47.7854392 393.221115 48.8095592 393.753658 49.5059608 C 394.2862 50.2023624 395.044049 51.4722712 395.453697 52.3120496 C 395.863345 53.151828 396.395887 54.6265608 396.641676 55.5892336 C 396.887465 56.5519064 397.174218 58.4977344 397.399525 62.47132 L 373.107398 62.47132 L 373.250775 63.290616 C 373.312222 63.7412288 373.578494 64.7039016 373.783318 65.4207856 C 374.008624 66.1376696 374.582131 67.2642016 375.032744 67.899156 C 375.483357 68.5341104 376.159276 69.2919592 376.507477 69.5582304 C 376.87616 69.8245016 377.613526 70.2751144 378.166551 70.561868 C 378.699094 70.8281392 379.641284 71.17634 380.255756 71.3401992 C 380.870228 71.5040584 382.50882 71.6474352 383.983553 71.6474352 C 385.437803 71.6474352 387.527008 71.5040584 388.612575 71.3197168 C 389.698142 71.1353752 391.234322 70.766692 392.012654 70.5209032 C 392.790985 70.2751144 393.815105 69.8859488 394.265718 69.6606424 C 394.71633 69.435336 395.187426 69.230512 395.31032 69.230512 C 395.447596 69.230512 395.528542 70.3758667 395.535183 75.1294681 L 395.535626 75.78488 L 395.535626 75.78488 L 394.327165 76.3379048 C 393.651246 76.6451408 392.258442 77.1367184 391.193358 77.4439544 C 390.128273 77.730708 388.182445 78.0993912 386.851089 78.242768 C 385.028155 78.4271096 383.799211 78.4271096 381.894348 78.242768 C 380.501545 78.0993912 378.473787 77.730708 377.38822 77.423472 C 376.302653 77.116236 374.725508 76.501764 373.906212 76.0511512 C 373.066434 75.6005384 371.653148 74.555936 370.751922 73.7161576 C 369.830214 72.8763792 368.6832 71.5040584 368.150658 70.66428 C 367.618115 69.8245016 366.962678 68.3907336 366.655442 67.489508 C 366.348206 66.5882824 365.979523 65.0111376 365.836146 64.0075 C 365.672287 62.880968 365.631322 61.3038232 365.713252 60.0748792 C 365.774699 58.9278648 366.04097 57.2073432 366.286759 56.2446704 C 366.532548 55.2819976 367.126538 53.7048528 367.597633 52.74218 C 368.068728 51.7795072 368.949471 50.4071864 369.522978 49.6903024 C 370.116968 48.9734184 371.284465 47.8673688 372.124243 47.2324144 C 372.964022 46.59746 374.377307 45.7986464 375.25805 45.4299632 C 376.118311 45.06128 377.613526 44.6311496 378.555717 44.446808 C 379.682249 44.241984 381.034087 44.1600544 382.570267 44.2215016 Z M 455.549058 43.8937832 L 455.549058 54.8723496 C 455.549058 60.9146576 455.487611 68.1449448 455.22134 76.0306688 L 453.459854 76.5632112 C 452.497181 76.8499648 450.551353 77.3005776 449.117585 77.525884 C 447.294651 77.8536024 445.553647 77.9764968 443.198171 77.9764968 C 441.334273 77.9764968 439.183621 77.8740848 438.40529 77.7511904 C 437.626958 77.6078136 436.090778 77.218648 435.005211 76.8704472 C 433.837714 76.501764 432.322017 75.78488 431.379826 75.170408 C 430.458118 74.5764184 429.18821 73.531816 428.532773 72.814932 C 427.897818 72.1185304 426.996593 70.8895864 426.566462 70.1112552 C 426.136332 69.332924 425.542342 67.899156 425.255589 66.9569656 C 424.825458 65.5846448 424.702564 64.51956 424.600152 62.0411896 C 424.538705 60.0543968 424.600152 58.2929104 424.764011 57.3302376 C 424.907388 56.4904592 425.276071 55.0771736 425.583307 54.175948 C 425.870061 53.2747224 426.54598 51.8409544 427.078522 51.001176 C 427.590582 50.1613976 428.696632 48.8300416 429.53641 48.0517104 C 430.478601 47.1914496 431.707545 46.3107064 432.711182 45.8191288 C 433.612408 45.3889984 434.923282 44.856456 435.660648 44.651632 C 436.377532 44.4672904 438.159501 44.241984 439.613751 44.1805368 C 441.559579 44.0986072 442.686111 44.1805368 443.894573 44.4263256 C 444.816281 44.6311496 446.188602 45.0817624 446.987415 45.4504456 C 447.765746 45.7986464 448.441666 46.1058824 448.462148 46.0854 C 448.499699 46.0854 448.520039 45.6723383 448.523168 45.1459714 L 448.523595 43.8937832 L 455.549058 43.8937832 Z M 238.1079 43.8937832 L 238.107624 57.5516963 L 238.107624 57.5516963 L 238.10536 58.9775961 C 238.089875 65.3886282 238.001392 71.680207 237.780182 76.0306688 L 236.018695 76.5632112 C 235.056022 76.8499648 233.028265 77.3005776 231.512567 77.5668488 C 229.198056 77.9560144 228.153454 77.9969792 224.814822 77.9150496 C 221.72198 77.83312 220.472554 77.7102256 219.100233 77.3620248 C 218.117078 77.0957536 216.437521 76.4607992 215.351954 75.9282568 C 214.204939 75.3547496 212.832618 74.453524 212.054287 73.7776048 C 211.337403 73.122168 210.313283 71.9546712 209.821706 71.1968224 C 209.309646 70.4184912 208.633726 69.1895472 208.346973 68.4726632 C 208.060219 67.7557792 207.630089 66.3220112 207.425265 65.3183736 C 207.138511 63.8436408 207.077064 62.7580736 207.158994 60.1772912 C 207.261406 57.6989208 207.404782 56.4904592 207.752983 55.2615152 C 208.019254 54.3602896 208.633726 52.8855568 209.104822 51.9843312 C 209.575917 51.0831056 210.518107 49.7107848 211.214509 48.952936 C 211.931393 48.1746048 213.09889 47.1504848 213.815774 46.6589072 C 214.532658 46.187812 215.720637 45.5528576 216.458003 45.266104 C 217.174887 44.9793504 218.485761 44.5901848 219.366504 44.4263256 C 220.247247 44.2624664 221.885839 44.1190896 222.991889 44.1190896 C 224.118421 44.1190896 225.716048 44.2829488 226.576309 44.446808 C 227.416087 44.6311496 228.747443 45.0817624 229.546257 45.4504456 C 230.324588 45.7986464 231.000507 46.1058824 231.02099 46.0854 C 231.041472 46.0854 231.082437 45.5938224 231.082437 44.9998328 L 231.082437 43.8937832 L 238.1079 43.8937832 Z M 279.216077 28.3886064 L 279.216954 38.7970356 C 279.224353 45.2163932 279.284245 45.6267863 279.605242 45.5323752 C 279.830549 45.4504456 280.895634 45.163692 281.981201 44.856456 C 283.271592 44.5082552 284.828254 44.2829488 286.487329 44.1805368 C 288.37171 44.0986072 289.477759 44.1600544 290.870562 44.4263256 C 292.058542 44.651632 293.471827 45.1432096 294.721254 45.7576816 C 295.806821 46.290224 297.240589 47.1914496 297.916508 47.7854392 C 298.571945 48.3589464 299.616547 49.567408 300.210537 50.4686336 C 300.825009 51.3698592 301.582858 52.8036272 301.910576 53.6843704 C 302.258777 54.5446312 302.688907 56.1627408 302.893731 57.2892728 C 303.13952 58.7640056 303.200967 60.0339144 303.119038 62.0411896 C 303.05759 63.5364048 302.832284 65.4003032 302.62746 66.1786344 C 302.443118 66.9569656 301.951541 68.2883216 301.562375 69.1281 C 301.17321 69.9678784 300.394878 71.2582696 299.841854 71.9751536 C 299.309311 72.6920376 298.223744 73.7571224 297.445413 74.351112 C 296.687564 74.9451016 295.294761 75.7643976 294.393535 76.1740456 C 293.49231 76.604176 291.997094 77.1367184 291.095869 77.3825072 C 289.682583 77.7716728 288.781358 77.83312 284.725842 77.8536024 C 280.895634 77.8740848 279.646207 77.7921552 278.13051 77.4644368 C 277.10639 77.2391304 275.40635 76.809 274.38223 76.5222464 C 273.35811 76.2354928 272.456885 75.9077744 272.374955 75.8258448 C 272.293026 75.7439152 272.190614 65.0521024 272.149649 52.0457784 L 272.067719 28.3886064 L 279.216077 28.3886064 Z M 490.082385 44.7745264 L 490.061902 55.7530928 L 490.061961 56.6163513 C 490.061982 56.7563781 490.06201 56.8944999 490.062044 57.0307467 L 490.062886 58.5776158 C 490.069112 65.3941585 490.112043 66.7050321 490.380445 67.753731 L 490.410073 67.8653272 C 490.435497 67.9578861 490.462772 68.0498479 490.492033 68.1449448 C 490.758304 68.9642408 491.249882 69.9269136 491.65953 70.4184912 C 492.048695 70.869104 492.867991 71.483576 493.482463 71.7703296 C 494.076453 72.0570832 495.223467 72.3848016 496.001798 72.4872136 C 496.841577 72.610108 498.029556 72.610108 498.869334 72.4872136 C 499.647666 72.3848016 500.79468 72.0570832 501.38867 71.7703296 C 502.003142 71.483576 502.822438 70.869104 503.211603 70.4184912 C 503.621251 69.9269136 504.133311 68.9642408 504.3791 68.1449448 C 504.411872 68.0384363 504.442153 67.9358605 504.470132 67.8263527 L 504.490688 67.7427524 C 504.745669 66.6630514 504.797164 64.7126156 504.807014 52.5764771 L 504.807708 51.5970297 C 504.807811 51.4302049 504.807906 51.2615743 504.807996 51.0911166 L 504.80893 48.3945648 C 504.808967 48.2053055 504.809001 48.0141129 504.809031 47.8209659 L 504.80923 44.7745264 L 504.80923 44.7745264 L 511.998553 44.7745264 L 511.957588 56.633836 C 511.939531 66.5289912 511.921474 68.2260978 511.636782 69.3453194 L 511.610567 69.4442061 C 511.597096 69.4930797 511.583075 69.5412508 511.568479 69.5894034 L 511.538514 69.6858867 L 511.538514 69.6858867 L 511.506975 69.7835368 L 511.506975 69.7835368 C 511.261186 70.5004208 510.749126 71.585988 510.359961 72.1799776 C 509.970795 72.7944496 509.294876 73.634228 508.823781 74.0848408 C 508.373168 74.5354536 507.390013 75.2523376 506.673129 75.682468 C 505.956245 76.1125984 504.563442 76.706588 503.600769 77.013824 C 502.494719 77.3620248 501.019986 77.628296 499.647666 77.730708 C 498.418722 77.7921552 496.452411 77.7921552 495.24395 77.7102256 C 493.871629 77.628296 492.376414 77.3620248 491.290846 77.013824 C 490.307691 76.706588 488.93537 76.1125984 488.198004 75.682468 C 487.48112 75.2523376 486.518447 74.5354536 486.047352 74.0848408 C 485.596739 73.634228 484.900338 72.7944496 484.511172 72.1799776 C 484.142489 71.585988 483.630429 70.5004208 483.38464 69.7835368 L 483.367873 69.7352458 L 483.367873 69.7352458 L 483.335591 69.6395371 C 483.304131 69.5441135 483.275113 69.4489503 483.248316 69.3486957 L 483.222251 69.2465458 C 482.947722 68.1172425 482.925134 66.1810599 482.87258 56.633836 L 482.79065 44.7745264 L 490.082385 44.7745264 Z M 441.47765 50.69394 C 440.699318 50.69394 439.511339 50.8577992 438.855902 51.0216584 C 438.179983 51.206 437.155863 51.615648 436.561874 51.9433664 C 435.967884 52.2710848 435.107623 52.947004 434.636528 53.459064 C 434.165433 53.971124 433.550961 54.8723496 433.243725 55.4868216 C 432.936489 56.0808112 432.547323 57.1868608 432.362982 57.9447096 C 432.17864 58.682076 432.035263 60.1363264 432.035263 61.1604464 C 432.035263 62.1845664 432.17864 63.6388168 432.362982 64.3761832 C 432.547323 65.134032 432.895524 66.158152 433.161795 66.670212 C 433.428066 67.182272 434.103986 68.0834976 434.65701 68.6570048 C 435.210035 69.2509944 436.111261 69.947396 436.643803 70.2136672 C 437.196828 70.5004208 438.179983 70.8895864 438.855902 71.073928 C 439.613751 71.2992344 440.863178 71.4221288 442.317428 71.4221288 C 443.546372 71.4221288 445.287376 71.3197168 446.147637 71.1968224 C 447.02838 71.073928 447.868158 70.8895864 447.991053 70.8076568 C 448.175394 70.7052448 448.277806 68.0630152 448.339254 61.7339536 L 448.400701 52.7831448 C 446.188602 51.6566128 444.959658 51.1855176 444.222291 51.001176 C 443.505407 50.8168344 442.276463 50.6734576 441.47765 50.69394 Z M 221.394262 51.0216584 C 220.738825 51.206 219.714705 51.615648 219.120715 51.9433664 C 218.526726 52.2710848 217.666465 52.947004 217.19537 53.459064 C 216.724274 53.971124 216.08932 54.8723496 215.802566 55.4868216 C 215.49533 56.0808112 215.106165 57.1868608 214.921823 57.9447096 C 214.737482 58.682076 214.594105 60.0339144 214.594105 60.93514 C 214.594105 61.8363656 214.696517 63.1677216 214.819411 63.8846056 C 214.962788 64.6014896 215.331471 65.7894688 215.679672 66.5063528 C 216.08932 67.3666136 216.744757 68.2473568 217.584535 69.025688 C 218.403831 69.7835368 219.366504 70.4184912 220.206282 70.7462096 C 221.230402 71.1558576 222.049698 71.278752 224.159386 71.381164 C 225.654601 71.4426112 227.538982 71.3606816 228.542619 71.2173048 C 229.505292 71.073928 230.406518 70.8895864 230.549894 70.8076568 C 230.713754 70.7052448 230.836648 67.8581912 230.93906 61.754436 L 231.082437 52.8650744 C 229.279986 51.8819192 228.276348 51.4313064 227.661876 51.2264824 C 227.067886 51.001176 225.675083 50.796352 224.589516 50.7553872 C 223.237678 50.69394 222.23404 50.7758696 221.394262 51.0216584 Z M 285.934304 50.69394 C 285.094526 50.7144224 283.988476 50.8168344 283.517381 50.9192464 C 283.025803 51.0216584 281.899271 51.3698592 280.977563 51.6975776 L 279.338971 52.2710848 L 279.338971 70.4389736 C 282.780014 71.3401992 283.517381 71.4016464 285.81141 71.3401992 C 288.064474 71.278752 288.80184 71.17634 289.887407 70.766692 C 290.604291 70.4799384 291.607929 69.947396 292.079024 69.5582304 C 292.570602 69.1895472 293.267003 68.4931456 293.635686 68.0220504 C 294.00437 67.5509552 294.536912 66.5678 294.803183 65.850916 C 295.089937 65.134032 295.417655 63.7617112 295.54055 62.7990384 C 295.724891 61.4881648 295.724891 60.5869392 295.520067 59.194136 C 295.356208 57.9447096 295.008007 56.8181776 294.495947 55.7530928 C 294.086299 54.8723496 293.369415 53.7867824 292.918802 53.3361696 C 292.46819 52.8855568 291.648894 52.2506024 291.095869 51.9433664 C 290.563326 51.615648 289.518724 51.206 288.781358 51.0216584 C 288.064474 50.8168344 286.774082 50.6734576 285.934304 50.69394 Z M 380.132862 51.001176 C 379.477425 51.1855176 378.41234 51.6566128 377.756903 52.0457784 C 377.101466 52.434944 376.179758 53.1927928 375.688181 53.7253352 C 375.217086 54.27836 374.582131 55.1795856 374.295378 55.7530928 C 374.008624 56.3266 373.762835 56.8796248 373.762835 57.0025192 C 373.762835 57.1390685 376.270884 57.2198834 380.915419 57.2272705 L 389.493318 57.2278256 C 389.268012 55.609716 389.063188 54.8109024 388.899329 54.380772 C 388.714987 53.971124 388.182445 53.1927928 387.71135 52.6807328 C 387.137842 52.0457784 386.441441 51.5951656 385.642627 51.2879296 C 384.966708 51.0626232 383.737764 50.8168344 382.897986 50.7553872 C 381.91483 50.7144224 380.911193 50.796352 380.132862 51.001176 Z" stroke-linecap="round" />
</g>
</g>
</g>
</svg>